<svg xmlns="http://www.w3.org/2000/svg" width="800" height="1160" viewBox="0 0 800 1160"><rect width="800" height="1160" fill="#f1f2f3"/><g font-family="Arial,sans-serif" fill="#253137"><text x="44" y="77" font-size="46" font-weight="700">Dashboard</text><text x="45" y="138" font-size="25" font-weight="700">Today</text><text x="175" y="138" font-size="23" fill="#888">Week</text><text x="300" y="138" font-size="23" fill="#888">Month</text><text x="430" y="138" font-size="23" fill="#888">3 Months</text><circle cx="74" cy="155" r="5" fill="#f17d61"/><g transform="translate(35,185)"><rect width="320" height="262" rx="28" fill="white"/><text x="24" y="39" font-size="23" font-weight="700">Uric Acid</text><circle cx="275" cy="38" r="16" fill="#f17d61"/><path d="M268 38h14m-7-7v14" stroke="white" stroke-width="2"/><rect x="26" y="146" width="5" height="28" rx="2" fill="#f17d61" opacity="0.3"/><rect x="44" y="127" width="5" height="47" rx="2" fill="#f17d61" opacity="0.6"/><rect x="62" y="108" width="5" height="66" rx="2" fill="#f17d61" opacity="0.8999999999999999"/><rect x="80" y="89" width="5" height="85" rx="2" fill="#f17d61" opacity="0.3"/><rect x="98" y="133" width="5" height="41" rx="2" fill="#f17d61" opacity="0.6"/><rect x="116" y="114" width="5" height="60" rx="2" fill="#f17d61" opacity="0.8999999999999999"/><rect x="134" y="95" width="5" height="79" rx="2" fill="#f17d61" opacity="0.3"/><rect x="152" y="139" width="5" height="35" rx="2" fill="#f17d61" opacity="0.6"/><rect x="170" y="120" width="5" height="54" rx="2" fill="#f17d61" opacity="0.8999999999999999"/><rect x="188" y="101" width="5" height="73" rx="2" fill="#f17d61" opacity="0.3"/><rect x="206" y="145" width="5" height="29" rx="2" fill="#f17d61" opacity="0.6"/><rect x="224" y="126" width="5" height="48" rx="2" fill="#f17d61" opacity="0.8999999999999999"/><rect x="242" y="107" width="5" height="67" rx="2" fill="#f17d61" opacity="0.3"/><rect x="260" y="88" width="5" height="86" rx="2" fill="#f17d61" opacity="0.6"/><rect x="278" y="132" width="5" height="42" rx="2" fill="#f17d61" opacity="0.8999999999999999"/><text x="25" y="223" font-size="30" font-weight="700">359.5</text><text x="122" y="223" font-size="17" fill="#898d8b">μmol/L</text></g><g transform="translate(385,185)"><rect width="320" height="262" rx="28" fill="white"/><text x="24" y="39" font-size="23" font-weight="700">Blood sugar</text><circle cx="275" cy="38" r="16" fill="#6c608a"/><path d="M268 38h14m-7-7v14" stroke="white" stroke-width="2"/><circle cx="153" cy="136" r="62" fill="none" stroke="#eeedf1" stroke-width="13"/><path d="M105 175 A62 62 0 1 1 196 91" fill="none" stroke="#6c608a" stroke-width="13" stroke-linecap="round"/><text x="153" y="140" text-anchor="middle" font-size="29" font-weight="700">9.88</text><text x="153" y="162" text-anchor="middle" fill="#7e8181" font-size="14">mmol/L</text></g><g transform="translate(35,470)"><rect width="320" height="262" rx="28" fill="white"/><text x="24" y="39" font-size="23" font-weight="700">LDL-C</text><circle cx="275" cy="38" r="16" fill="#6abccb"/><path d="M268 38h14m-7-7v14" stroke="white" stroke-width="2"/><rect x="26" y="120" width="5" height="54" rx="2" fill="#6abccb" opacity="0.3"/><rect x="44" y="101" width="5" height="73" rx="2" fill="#6abccb" opacity="0.6"/><rect x="62" y="145" width="5" height="29" rx="2" fill="#6abccb" opacity="0.8999999999999999"/><rect x="80" y="126" width="5" height="48" rx="2" fill="#6abccb" opacity="0.3"/><rect x="98" y="107" width="5" height="67" rx="2" fill="#6abccb" opacity="0.6"/><rect x="116" y="88" width="5" height="86" rx="2" fill="#6abccb" opacity="0.8999999999999999"/><rect x="134" y="132" width="5" height="42" rx="2" fill="#6abccb" opacity="0.3"/><rect x="152" y="113" width="5" height="61" rx="2" fill="#6abccb" opacity="0.6"/><rect x="170" y="94" width="5" height="80" rx="2" fill="#6abccb" opacity="0.8999999999999999"/><rect x="188" y="138" width="5" height="36" rx="2" fill="#6abccb" opacity="0.3"/><rect x="206" y="119" width="5" height="55" rx="2" fill="#6abccb" opacity="0.6"/><rect x="224" y="100" width="5" height="74" rx="2" fill="#6abccb" opacity="0.8999999999999999"/><rect x="242" y="144" width="5" height="30" rx="2" fill="#6abccb" opacity="0.3"/><rect x="260" y="125" width="5" height="49" rx="2" fill="#6abccb" opacity="0.6"/><rect x="278" y="106" width="5" height="68" rx="2" fill="#6abccb" opacity="0.8999999999999999"/><text x="25" y="223" font-size="30" font-weight="700">3.57</text><text x="122" y="223" font-size="17" fill="#898d8b">mmol/L</text></g><g transform="translate(385,470)"><rect width="320" height="262" rx="28" fill="white"/><text x="24" y="39" font-size="23" font-weight="700">HDL-C</text><circle cx="275" cy="38" r="16" fill="#edc974"/><path d="M268 38h14m-7-7v14" stroke="white" stroke-width="2"/><rect x="26" y="107" width="5" height="67" rx="2" fill="#edc974" opacity="0.3"/><rect x="44" y="88" width="5" height="86" rx="2" fill="#edc974" opacity="0.6"/><rect x="62" y="132" width="5" height="42" rx="2" fill="#edc974" opacity="0.8999999999999999"/><rect x="80" y="113" width="5" height="61" rx="2" fill="#edc974" opacity="0.3"/><rect x="98" y="94" width="5" height="80" rx="2" fill="#edc974" opacity="0.6"/><rect x="116" y="138" width="5" height="36" rx="2" fill="#edc974" opacity="0.8999999999999999"/><rect x="134" y="119" width="5" height="55" rx="2" fill="#edc974" opacity="0.3"/><rect x="152" y="100" width="5" height="74" rx="2" fill="#edc974" opacity="0.6"/><rect x="170" y="144" width="5" height="30" rx="2" fill="#edc974" opacity="0.8999999999999999"/><rect x="188" y="125" width="5" height="49" rx="2" fill="#edc974" opacity="0.3"/><rect x="206" y="106" width="5" height="68" rx="2" fill="#edc974" opacity="0.6"/><rect x="224" y="87" width="5" height="87" rx="2" fill="#edc974" opacity="0.8999999999999999"/><rect x="242" y="131" width="5" height="43" rx="2" fill="#edc974" opacity="0.3"/><rect x="260" y="112" width="5" height="62" rx="2" fill="#edc974" opacity="0.6"/><rect x="278" y="93" width="5" height="81" rx="2" fill="#edc974" opacity="0.8999999999999999"/><text x="25" y="223" font-size="30" font-weight="700">1.77</text><text x="122" y="223" font-size="17" fill="#898d8b">mmol/L</text></g><g transform="translate(35,755)"><rect width="320" height="262" rx="28" fill="white"/><text x="24" y="39" font-size="23" font-weight="700">Triglycerides</text><circle cx="275" cy="38" r="16" fill="#6c608a"/><path d="M268 38h14m-7-7v14" stroke="white" stroke-width="2"/><rect x="26" y="94" width="5" height="80" rx="2" fill="#6c608a" opacity="0.3"/><rect x="44" y="138" width="5" height="36" rx="2" fill="#6c608a" opacity="0.6"/><rect x="62" y="119" width="5" height="55" rx="2" fill="#6c608a" opacity="0.8999999999999999"/><rect x="80" y="100" width="5" height="74" rx="2" fill="#6c608a" opacity="0.3"/><rect x="98" y="144" width="5" height="30" rx="2" fill="#6c608a" opacity="0.6"/><rect x="116" y="125" width="5" height="49" rx="2" fill="#6c608a" opacity="0.8999999999999999"/><rect x="134" y="106" width="5" height="68" rx="2" fill="#6c608a" opacity="0.3"/><rect x="152" y="87" width="5" height="87" rx="2" fill="#6c608a" opacity="0.6"/><rect x="170" y="131" width="5" height="43" rx="2" fill="#6c608a" opacity="0.8999999999999999"/><rect x="188" y="112" width="5" height="62" rx="2" fill="#6c608a" opacity="0.3"/><rect x="206" y="93" width="5" height="81" rx="2" fill="#6c608a" opacity="0.6"/><rect x="224" y="137" width="5" height="37" rx="2" fill="#6c608a" opacity="0.8999999999999999"/><rect x="242" y="118" width="5" height="56" rx="2" fill="#6c608a" opacity="0.3"/><rect x="260" y="99" width="5" height="75" rx="2" fill="#6c608a" opacity="0.6"/><rect x="278" y="143" width="5" height="31" rx="2" fill="#6c608a" opacity="0.8999999999999999"/><text x="25" y="223" font-size="30" font-weight="700">1.42</text><text x="122" y="223" font-size="17" fill="#898d8b">mmol/L</text></g><g transform="translate(385,755)"><rect width="320" height="262" rx="28" fill="white"/><text x="24" y="39" font-size="23" font-weight="700">Total cholesterol</text><circle cx="275" cy="38" r="16" fill="#f17d61"/><path d="M268 38h14m-7-7v14" stroke="white" stroke-width="2"/><rect x="26" y="144" width="5" height="30" rx="2" fill="#f17d61" opacity="0.3"/><rect x="44" y="125" width="5" height="49" rx="2" fill="#f17d61" opacity="0.6"/><rect x="62" y="106" width="5" height="68" rx="2" fill="#f17d61" opacity="0.8999999999999999"/><rect x="80" y="87" width="5" height="87" rx="2" fill="#f17d61" opacity="0.3"/><rect x="98" y="131" width="5" height="43" rx="2" fill="#f17d61" opacity="0.6"/><rect x="116" y="112" width="5" height="62" rx="2" fill="#f17d61" opacity="0.8999999999999999"/><rect x="134" y="93" width="5" height="81" rx="2" fill="#f17d61" opacity="0.3"/><rect x="152" y="137" width="5" height="37" rx="2" fill="#f17d61" opacity="0.6"/><rect x="170" y="118" width="5" height="56" rx="2" fill="#f17d61" opacity="0.8999999999999999"/><rect x="188" y="99" width="5" height="75" rx="2" fill="#f17d61" opacity="0.3"/><rect x="206" y="143" width="5" height="31" rx="2" fill="#f17d61" opacity="0.6"/><rect x="224" y="124" width="5" height="50" rx="2" fill="#f17d61" opacity="0.8999999999999999"/><rect x="242" y="105" width="5" height="69" rx="2" fill="#f17d61" opacity="0.3"/><rect x="260" y="86" width="5" height="88" rx="2" fill="#f17d61" opacity="0.6"/><rect x="278" y="130" width="5" height="44" rx="2" fill="#f17d61" opacity="0.8999999999999999"/><text x="25" y="223" font-size="30" font-weight="700">4.89</text><text x="122" y="223" font-size="17" fill="#898d8b">mmol/L</text></g><path d="M160 1093h480" stroke="#b9c0bd" stroke-width="2"/><text x="100" y="1130" font-size="20">Overview</text><text x="335" y="1130" font-size="20">History</text><text x="570" y="1130" font-size="20">Settings</text></g></svg>